<svg width="47" height="57" viewBox="0 0 47 57" fill="none" xmlns="http://www.w3.org/2000/svg">
<g clip-path="url(#clip0_2_87)" filter="url(#filter0_d_2_87)">
<path d="M23.3538 6.00982L22.0585 5.07956L20.7619 6.00982L19.466 5.07956L18.1706 6.00982L16.8753 5.07956L15.58 6.00982L13.9894 4.8662L14.5811 3.51309L15.58 4.23077L16.8753 3.30051L18.1706 4.23077L19.466 3.30051L20.7619 4.23077L22.0585 3.30051L23.3538 4.23077L24.6485 3.30051L25.9445 4.23154L27.241 3.30128L28.5388 4.23154L29.8359 3.30128L31.1361 4.23154L32.141 3.51232L32.7303 4.86697L31.1361 6.00904L29.8359 5.07878L28.5388 6.00904L27.241 5.07878L25.9445 6.00904L24.6485 5.07956L23.3538 6.00982Z" fill="white"/>
<path d="M14.0233 9.98222L12.1743 8.65239L12.766 7.29929L14.0233 8.20317L15.5782 7.0867L17.1324 8.20317L18.6873 7.0867L20.2422 8.20317L21.7977 7.0867L23.3532 8.20317L24.9063 7.0867L26.4612 8.20317L28.0172 7.08748L29.5746 8.20394L31.1319 7.08748L32.691 8.20394L33.9561 7.29851L34.5454 8.65317L32.691 9.98144L31.1319 8.86498L29.5746 9.98144L28.0172 8.86498L26.4612 9.98222L24.9063 8.86575L23.3532 9.98222L21.7977 8.86575L20.2422 9.98222L18.6873 8.86575L17.1324 9.98222L15.5782 8.86575L14.0233 9.98222Z" fill="white"/>
<path d="M38.4858 31.0345H41.4764L37.5868 24.0517H36.6708V20.1724H33.6457V12.4138H36.4735L31.5875 0.775848H15.1335L10.2474 12.4138H13.0752V20.1724H10.0501V24.0517H9.13354L5.2439 31.0345H8.2351V47.3276H7.02507V48.8793H39.6959V47.3276H38.4858V31.0345ZM35.4608 24.0517H34.2507V21.7241H35.4608V24.0517ZM31.8307 21.7241H33.0407V24.0517H31.8307V21.7241ZM15.8571 2.32757H30.8645L34.4486 10.8621H12.273L15.8571 2.32757ZM14.8903 24.0517H13.6802V21.7241H14.8903V24.0517ZM11.2602 21.7241H12.4702V24.0517H11.2602V21.7241ZM9.44513 31.0345H11.8652V29.4827H7.5956L9.7561 25.6034H15.4953V24.8276H16.1003V21.7241H19.7304V20.1724H14.2852V12.4138H32.4357V20.1724H26.9905V21.7241H30.6206V24.8276H31.2257V25.6034H36.9642L39.1247 29.4827H34.8557V31.0345H37.2758V47.3276H36.0658V45H34.8557V47.3276H30.0156V45H28.8056V47.3276H26.9905V34.9138H19.7304V47.3276H17.9153V45H16.7053V47.3276H11.8652V45H10.6552V47.3276H9.44513V31.0345ZM25.7805 47.3276H20.9404V36.4655H25.7805V47.3276Z" fill="black"/>
<path d="M23.3605 33.362C25.0285 33.362 26.3855 31.6218 26.3855 29.4827C26.3855 27.3437 25.0285 25.6034 23.3605 25.6034C21.6924 25.6034 20.3354 27.3437 20.3354 29.4827C20.3354 31.6218 21.6924 33.362 23.3605 33.362ZM21.6567 30.2586H22.7554V31.6676C22.243 31.4333 21.8395 30.9158 21.6567 30.2586ZM23.9655 31.6676V30.2586H25.0642C24.8815 30.9158 24.4779 31.4333 23.9655 31.6676ZM25.0642 28.7069H23.9655V27.2979C24.4779 27.5322 24.8815 28.0497 25.0642 28.7069ZM22.7554 27.2979V28.7069H21.6567C21.8395 28.0497 22.243 27.5322 22.7554 27.2979Z" fill="black"/>
<path d="M14.8903 30.2586H13.6802V40.3448H14.8903V30.2586Z" fill="black"/>
<path d="M33.0407 30.2586H31.8307V40.3448H33.0407V30.2586Z" fill="black"/>
<path d="M23.3605 41.1207H22.1504V42.6724H23.3605V41.1207Z" fill="black"/>
<path d="M31.2257 13.9655H27.5956V18.6207H31.2257V13.9655ZM30.0156 17.069H28.8056V15.5172H30.0156V17.069Z" fill="black"/>
<path d="M15.4953 18.6207H19.1254V13.9655H15.4953V18.6207ZM16.7053 15.5172H17.9153V17.069H16.7053V15.5172Z" fill="black"/>
<path d="M42.1159 47.3276H40.9059V48.8793H42.1159V47.3276Z" fill="black"/>
<path d="M5.81504 47.3276H4.60501V48.8793H5.81504V47.3276Z" fill="black"/>
<path d="M16.7053 45.7758H11.8652C10.8645 45.7758 10.0501 44.7315 10.0501 43.4482C10.0501 42.352 10.6443 41.4295 11.4417 41.1843C11.775 40.2222 12.5295 39.5689 13.3777 39.5689C13.6941 39.5689 14.0021 39.6597 14.2852 39.8358C14.5684 39.6597 14.8763 39.5689 15.1928 39.5689C16.041 39.5689 16.7954 40.2222 17.1288 41.1843C17.9262 41.4295 18.5203 42.352 18.5203 43.4482C18.5203 44.7315 17.706 45.7758 16.7053 45.7758Z" fill="white"/>
<path d="M34.8557 45.7758H30.0156C29.0149 45.7758 28.2006 44.7315 28.2006 43.4482C28.2006 42.352 28.7947 41.4295 29.5921 41.1843C29.9255 40.2222 30.6799 39.5689 31.5282 39.5689C31.8446 39.5689 32.1525 39.6597 32.4357 39.8358C32.7188 39.6597 33.0268 39.5689 33.3432 39.5689C34.1914 39.5689 34.9459 40.2222 35.2793 41.1843C36.0767 41.4295 36.6708 42.352 36.6708 43.4482C36.6708 44.7315 35.8564 45.7758 34.8557 45.7758Z" fill="white"/>
<path d="M33.6366 31.8103H33.4473C33.0552 31.8103 32.6662 31.6435 32.3522 31.3417L23.3605 22.694L14.3681 31.3417C14.0547 31.6435 13.6663 31.8103 13.2737 31.8103H13.0843C12.0788 31.8103 11.2602 30.7606 11.2602 29.4711C11.2602 28.7542 11.524 28.0645 11.9644 27.6246L21.9066 17.709C22.7337 16.8835 23.9873 16.8835 24.8149 17.709L34.7577 27.6253C35.197 28.0645 35.4608 28.755 35.4608 29.4711C35.4608 30.7606 34.6422 31.8103 33.6366 31.8103Z" fill="white"/>
</g>
<defs>
<filter id="filter0_d_2_87" x="0" y="0" width="46.7209" height="57.6552" filterUnits="userSpaceOnUse" color-interpolation-filters="sRGB">
<feFlood flood-opacity="0" result="BackgroundImageFix"/>
<feColorMatrix in="SourceAlpha" type="matrix" values="0 0 0 0 0 0 0 0 0 0 0 0 0 0 0 0 0 0 127 0" result="hardAlpha"/>
<feOffset dy="4"/>
<feGaussianBlur stdDeviation="2"/>
<feComposite in2="hardAlpha" operator="out"/>
<feColorMatrix type="matrix" values="0 0 0 0 0 0 0 0 0 0 0 0 0 0 0 0 0 0 0.25 0"/>
<feBlend mode="normal" in2="BackgroundImageFix" result="effect1_dropShadow_2_87"/>
<feBlend mode="normal" in="SourceGraphic" in2="effect1_dropShadow_2_87" result="shape"/>
</filter>
<clipPath id="clip0_2_87">
<rect width="38.7209" height="49.6552" fill="white" transform="translate(4)"/>
</clipPath>
</defs>
</svg>
